<!-- public/icons/sprite.svg -->
<svg xmlns="http://www.w3.org/2000/svg" style="display:none">

    <!-- === UI === -->
    <symbol id="icon-logo" height="40" viewBox="0 0 40 40" fill="none" xmlns="http://www.w3.org/2000/svg">
        <rect width="40" height="40" rx="18" fill="#645482"/>
        <path d="M11.748 14.744L14.532 23.112H14.596L17.316 14.744L15.988 14.408V13.48H20.212V14.408L18.9 14.744L15.396 25H13.348L9.54 14.744L8.26 14.408V13.48H13.06V14.408L11.748 14.744ZM25.782 14.424C25.3767 14.424 24.9873 14.5093 24.614 14.68C24.2513 14.8507 23.958 15.096 23.734 15.416C23.446 15.832 23.2007 16.3547 22.998 16.984C22.806 17.6027 22.71 18.2907 22.71 19.048C22.71 19.8053 22.79 20.5147 22.95 21.176C23.11 21.8373 23.334 22.392 23.622 22.84C23.8567 23.2027 24.1713 23.4693 24.566 23.64C24.9713 23.8107 25.4247 23.896 25.926 23.896C27.718 23.896 28.7687 22.9947 29.078 21.192H30.438C29.9153 23.8373 28.294 25.16 25.574 25.16C24.102 25.16 22.9287 24.7333 22.054 23.88C21.5313 23.368 21.1313 22.7227 20.854 21.944C20.5767 21.1653 20.438 20.3013 20.438 19.352C20.438 18.2747 20.614 17.2987 20.966 16.424C21.318 15.5493 21.814 14.8507 22.454 14.328C23.2647 13.656 24.3367 13.32 25.67 13.32C26.3313 13.32 26.87 13.4053 27.286 13.576C27.702 13.7467 28.1127 14.0507 28.518 14.488L28.838 13.48H30.198V17.256H28.742C28.5927 16.3173 28.2567 15.6133 27.734 15.144C27.222 14.664 26.5713 14.424 25.782 14.424Z" fill="white"/>
    </symbol>

    <symbol id="icon-chevron-down" viewBox="0 0 24 24" fill="none" stroke="currentColor" stroke-width="2" stroke-linecap="round">
        <polyline points="6 9 12 15 18 9"></polyline>
    </symbol>

    <symbol id="icon-download" viewBox="0 0 16 16" fill="none" stroke="currentColor" stroke-width="2" stroke-linecap="round">
        <path d="M14 10V12.6667C14 13.0203 13.8595 13.3594 13.6095 13.6095C13.3594 13.8595 13.0203 14 12.6667 14H3.33333C2.97971 14 2.64057 13.8595 2.39052 13.6095C2.14048 13.3594 2 13.0203 2 12.6667V10" stroke="black" stroke-width="1.33333" stroke-linecap="round" stroke-linejoin="round"/>
        <path d="M4.66666 6.66669L7.99999 10L11.3333 6.66669" stroke="black" stroke-width="1.33333" stroke-linecap="round" stroke-linejoin="round"/>
        <path d="M8 10V2" stroke="black" stroke-width="1.33333" stroke-linecap="round" stroke-linejoin="round"/>
    </symbol>

    <symbol id="icon-sun" viewBox="0 0 24 24" fill="none" stroke="currentColor" stroke-width="2" stroke-linecap="round">
        <circle cx="12" cy="12" r="4.2"></circle>
        <path d="M12 2v3M12 19v3M4.2 4.2l2.1 2.1M17.7 17.7l2.1 2.1M2 12h3M19 12h3M4.2 19.8l2.1-2.1M17.7 6.3l2.1-2.1"></path>>
    </symbol>

    <symbol id="icon-moon" viewBox="0 0 24 24" fill="none" stroke="currentColor" stroke-width="2" stroke-linecap="round">
        <path d="M20 14.5A8.5 8.5 0 0 1 9.5 4 8.5 8.5 0 1 0 20 14.5Z"></path>
    </symbol>

    <!-- === CATEGORY ICONS === -->
    <symbol id="icon-skill-language" viewBox="0 0 24 24" stroke-linejoin="round" fill="none" stroke="#645482" stroke-width="2" stroke-linecap="round">
        <polyline points="8 6 2 12 8 18"></polyline>
        <polyline points="16 6 22 12 16 18"></polyline>
    </symbol>

    <symbol id="icon-skill-learning" viewBox="0 0 64 64" fill="none" stroke="#DDD7EC" stroke-width="2" stroke-linecap="round">
        <rect width="64" height="64" rx="16" fill="#DDD7EC"></rect>
            <g transform="translate(8,8) scale(2)" fill="none" stroke="#645482" stroke-width="2" stroke-linecap="round" stroke-linejoin="round"><path d="M12 20V10"></path><path d="M12 10 3 6l9-4 9 4-9 4Z"></path><path d="M20 10v6c0 1.5-3.5 3-8 3s-8-1.5-8-3v-6"></path>
            </g>
    </symbol>

    <symbol id="icon-skill-markup" viewBox="0 0 64 64" fill="none">
        <rect width="64" height="64" rx="16" fill="#DDD7EC"></rect>
            <g transform="translate(8,8) scale(2)" fill="none" stroke="#645482" stroke-width="2" stroke-linecap="round" stroke-linejoin="round"><polyline points="4 4 5.5 20 12 22 18.5 20 20 4"></polyline><path d="M8 8h8M8.4 12h7.2M8.7 16l3.3 1 3.3-1"></path>
            </g>
    </symbol>

    <symbol id="icon-skill-tools" width="64" height="64" viewBox="0 0 64 64" stroke-linejoin="round" fill="none" stroke="#645482" stroke-width="2" stroke-linecap="round">
        <path d="M14.7 6.3a4 4 0 0 1-5.4 5.4L4 17v3h3l5.3-5.3a4 4 0 0 1 5.4-5.4l-2.6 2.6-2-2 2.6-2.6Z"></path>
    </symbol>

    <!-- === SKILLS === -->
    <symbol id="icon-nextjs" width="32" height="32" viewBox="0 0 64 64">
        <circle cx="32" cy="32" r="32" fill="#111111"></circle>
            <g transform="translate(8,8) scale(2)" fill="none" stroke="#fff" stroke-width="2" stroke-linecap="round" stroke-linejoin="round"><circle cx="12" cy="12" r="9"></circle><polygon points="10 8 16 12 10 16" fill="#fff" stroke="none"></polygon>
        </g>
    </symbol>

    <symbol id="icon-nodejs" viewBox="0 0 64 64" width="32" height="32">
        <circle cx="32" cy="32" r="32" fill="#339933"></circle>
            <g transform="translate(8,8) scale(2)" fill="none" stroke="#fff" stroke-width="2" stroke-linecap="round" stroke-linejoin="round"><polygon points="12 2 20 7 20 17 12 22 4 17 4 7"></polygon>
        </g>
    </symbol>

    <symbol id="icon-react" width="32" height="32" viewBox="0 0 64 64">
        <circle cx="32" cy="32" r="32" fill="#61DAFB"></circle>
            <g transform="translate(8,8) scale(2)" fill="none" stroke="#0a3540" stroke-width="1.6" stroke-linecap="round" stroke-linejoin="round"><ellipse cx="12" cy="12" rx="10" ry="4"></ellipse><ellipse cx="12" cy="12" rx="10" ry="4" transform="rotate(60 12 12)"></ellipse><ellipse cx="12" cy="12" rx="10" ry="4" transform="rotate(120 12 12)"></ellipse><circle cx="12" cy="12" r="1.8" fill="currentColor" stroke="none"></circle>
        </g>
    </symbol>

    <symbol id="icon-redux" width="32" height="32" viewBox="0 0 64 64">
        <circle cx="32" cy="32" r="32" fill="#764ABC"></circle>
            <g transform="translate(8,8) scale(2)" fill="none" stroke="#fff" stroke-width="2" stroke-linecap="round" stroke-linejoin="round"><path d="M12 4a8 8 0 1 1-6.9 4"></path><polyline points="4 4 5 8 9 7"></polyline>
        </g>
    </symbol>

    <symbol id="icon-styled" width="32" height="32" viewBox="0 0 64 64">
        <circle cx="32" cy="32" r="32" fill="#DB7093"></circle>
        <g transform="translate(8,8) scale(2)" fill="none" stroke="#fff" stroke-width="2" stroke-linecap="round" stroke-linejoin="round"><path d="M3 12c3-6 6-6 9 0s6 6 9 0"></path></g>
    </symbol>
    <symbol id="icon-typescript"  width="32" height="32" viewBox="0 0 64 64">
        <circle cx="32" cy="32" r="32" fill="#3178C6"></circle>
            <g transform="translate(8,8) scale(2)" fill="#fff"><text x="12" y="17" font-family="Manrope, sans-serif" font-size="13" font-weight="800" text-anchor="middle" fill="#fff">TS</text>
        </g>
    </symbol>

    <symbol id="icon-vite" width="32" height="32" viewBox="0 0 64 64">
        <circle cx="32" cy="32" r="32" fill="#646CFF"></circle>
            <g transform="translate(8,8) scale(2)" fill="#fff"><polygon points="13 2 4 14 11 14 10 22 20 9 13 9 13 2"></polygon>
        </g>
    </symbol>

    <symbol id="icon-codex" width="32" height="32" viewBox="0 0 64 64">
        <circle cx="32" cy="32" r="32" fill="#10A37F"></circle>
            <g transform="translate(8,8) scale(2)" fill="none" stroke="#fff" stroke-width="2" stroke-linecap="round" stroke-linejoin="round"><rect x="3" y="4" width="18" height="16" rx="2"></rect><polyline points="7 9 10 12 7 15"></polyline><line x1="12" y1="15" x2="16" y2="15"></line>
        </g>
    </symbol>

    <symbol id="icon-git" width="32" height="32" viewBox="0 0 64 64">
        <circle cx="32" cy="32" r="32" fill="#F05033"></circle>
            <g transform="translate(8,8) scale(2)" fill="none" stroke="#fff" stroke-width="2" stroke-linecap="round" stroke-linejoin="round"><circle cx="6" cy="6" r="2"></circle><circle cx="6" cy="18" r="2"></circle><circle cx="18" cy="10" r="2"></circle><line x1="6" y1="8" x2="6" y2="16"></line><path d="M6 8c0 4 4 4 8 4 2 0 4-1 4-2"></path>
        </g>
    </symbol>

    <symbol id="icon-css" width="32" height="32" viewBox="0 0 64 64">
        <circle cx="32" cy="32" r="32" fill="#1572B6"></circle>
        <g transform="translate(8,8) scale(2)" fill="none" stroke="#fff" stroke-width="2" stroke-linecap="round" stroke-linejoin="round"><circle cx="8" cy="8" r="3"></circle>
        <circle cx="16" cy="8" r="3"></circle>
        <circle cx="12" cy="16" r="3"></circle>
        </g>
    </symbol>

    <symbol id="icon-html" width="32" height="32" viewBox="0 0 64 64">
        <circle cx="32" cy="32" r="32" fill="#E34F26"></circle>
        <g transform="translate(8,8) scale(2)" fill="none" stroke="#fff" stroke-width="2" stroke-linecap="round" stroke-linejoin="round">
        <path d="M8 4 3 12 8 20"></path>
        <path d="M16 4 21 12 16 20"></path>
        <line x1="13" y1="3" x2="11" y2="21"></line></g>
    </symbol>

    <symbol id="icon-javascript" width="32" height="32" viewBox="0 0 64 64">
        <circle cx="32" cy="32" r="32" fill="#F0DB4F"></circle>
            <g transform="translate(8,8) scale(2)" fill="#2b2200"><text x="12" y="17" font-family="Manrope, sans-serif" font-size="13" font-weight="800" text-anchor="middle" fill="currentColor">JS</text>
        </g>
    </symbol>

    <symbol id="icon-jest" width="32" height="32" viewBox="0 0 64 64">
        <circle cx="32" cy="32" r="32" fill="#C21325"></circle>
            <g transform="translate(8,8) scale(2)" fill="none" stroke="#fff" stroke-width="2" stroke-linecap="round" stroke-linejoin="round"><circle cx="12" cy="12" r="9"></circle><polyline points="8 12 11 15 16 9"></polyline>
        </g>
    </symbol>

    <symbol id="icon-rest" width="32" height="32" viewBox="0 0 64 64">
        <circle cx="32" cy="32" r="32" fill="#5A67D8"></circle>
            <g transform="translate(8,8) scale(2)" fill="none" stroke="#ffffff" stroke-width="2" stroke-linecap="round" stroke-linejoin="round">
                <path d="M4 7h11a3 3 0 0 1 3 3v0a3 3 0 0 1-3 3H8"></path>
                <polyline points="7 6 4 7 7 8"></polyline>
                <path d="M20 17H9a3 3 0 0 1-3-3v0a3 3 0 0 1 3-3h8"></path>
                <polyline points="17 18 20 17 17 16"></polyline>
        </g>
    </symbol>

    <!-- === SOCIAL === -->
    <symbol id="icon-kakaotalk" width="24" height="24" viewBox="0 0 24 24" fill="none" stroke="currentColor" stroke-width="2" stroke-linecap="round" stroke-linejoin="round">
        <path d="M12 3C6.5 3 2 6.6 2 11c0 2.7 1.8 5.1 4.5 6.6L5.5 21l3.9-2.2c.8.15 1.7.22 2.6.22 5.5 0 10-3.6 10-8s-4.5-8-10-8Z"></path>
    </symbol>

    <symbol id="icon-linkedin" width="24" height="24" viewBox="0 0 24 24" fill="currentColor">
        <path d="M6.94 5a2 2 0 1 1-4 0 2 2 0 0 1 4 0ZM3.2 8.75h3.5V21H3.2V8.75Zm6.34 0H13v1.68h.05c.47-.88 1.6-1.8 3.3-1.8 3.53 0 4.18 2.32 4.18 5.35V21h-3.5v-6.3c0-1.5-.03-3.44-2.1-3.44-2.1 0-2.42 1.64-2.42 3.33V21H9.54V8.75Z"></path>
    </symbol>

    <symbol id="icon-mail" width="24" height="24" viewBox="0 0 24 24" fill="none" stroke="currentColor" stroke-width="2" stroke-linecap="round" stroke-linejoin="round">
        <rect x="2" y="4" width="20" height="16" rx="2"></rect><path d="m22 6-10 7L2 6"></path>
    </symbol>

    <symbol id="icon-telegram" width="24" height="24" viewBox="0 0 24 24" fill="currentColor">
        <path d="M21.5 3.5 2.75 10.9c-1.2.48-1.2 1.15-.22 1.44l4.78 1.5 1.85 5.65c.23.63.4.88.85.88.34 0 .5-.16.7-.36l1.9-1.83 4.02 2.96c.74.4 1.27.2 1.46-.68l2.63-12.4c.28-1.11-.42-1.6-1.24-1.26Z"></path>
    </symbol>

    <symbol id="icon-whatsapp" width="24" height="24" viewBox="0 0 24 24" fill="none" stroke="currentColor" stroke-width="2" stroke-linecap="round" stroke-linejoin="round">
        <path d="M21 11.5a8.5 8.5 0 0 1-12.36 7.57L4 20l1.02-4.5A8.5 8.5 0 1 1 21 11.5Z"></path>
        <path d="M8.5 10.5c0 3 2.5 5.5 5.5 5.5"></path>
    </symbol>

    <symbol id="icon-codewars" width="24" height="24" viewBox="0 0 24 24" fill="none" stroke="currentColor" stroke-width="2" stroke-linecap="round" stroke-linejoin="round">
        <polyline points="8 6 2 12 8 18"></polyline><polyline points="16 6 22 12 16 18"></polyline><line x1="13" y1="4" x2="11" y2="20"></line>
    </symbol>

    <symbol id="icon-github" width="24" height="24" viewBox="0 0 24 24" fill="currentColor">
        <path d="M12 2a10 10 0 0 0-3.16 19.5c.5.1.68-.22.68-.48v-1.7c-2.78.6-3.37-1.34-3.37-1.34-.46-1.16-1.11-1.47-1.11-1.47-.9-.62.07-.6.07-.6 1 .07 1.53 1.03 1.53 1.03.9 1.52 2.34 1.08 2.91.83.09-.65.35-1.08.63-1.33-2.22-.25-4.56-1.11-4.56-4.95 0-1.1.39-1.99 1.03-2.69-.1-.25-.45-1.27.1-2.65 0 0 .84-.27 2.75 1.02a9.6 9.6 0 0 1 5 0c1.91-1.29 2.75-1.02 2.75-1.02.55 1.38.2 2.4.1 2.65.64.7 1.03 1.59 1.03 2.69 0 3.85-2.34 4.7-4.57 4.94.36.31.68.92.68 1.85v2.75c0 .26.18.58.69.48A10 10 0 0 0 12 2Z"></path>
    </symbol>git rebase -i HEAD~5
</svg>