<!-- public/icons/sprite.svg -->
<svg xmlns="http://www.w3.org/2000/svg" style="display:none">

    <!-- === UI === -->
    <symbol id="icon-chevron-down" viewBox="0 0 24 24" fill="none" stroke="currentColor" stroke-width="2" stroke-linecap="round">
        <polyline points="6 9 12 15 18 9"></polyline>
    </symbol>

    <symbol id="icon-download" viewBox="0 0 24 24" fill="none" stroke="currentColor" stroke-width="2" stroke-linecap="round">
        <path d="M12 3v12"></path>
        <path d="m7 10 5 5 5-5"></path>
        <path d="M4 21h16"></path>
    </symbol>

    <symbol id="icon-sun" viewBox="0 0 24 24" fill="none" stroke="currentColor" stroke-width="2" stroke-linecap="round">
        <circle cx="12" cy="12" r="4.2"></circle>
        <path d="M12 2v3M12 19v3M4.2 4.2l2.1 2.1M17.7 17.7l2.1 2.1M2 12h3M19 12h3M4.2 19.8l2.1-2.1M17.7 6.3l2.1-2.1"></path>>
    </symbol>
    <symbol id="icon-moon" viewBox="0 0 24 24" fill="none" stroke="currentColor" stroke-width="2" stroke-linecap="round">
        <path d="M20 14.5A8.5 8.5 0 0 1 9.5 4 8.5 8.5 0 1 0 20 14.5Z"></path>
    </symbol>

    <!-- === CATEGORY ICONS === -->
    <symbol id="icon-skill-language" viewBox="0 0 24 24" stroke-linejoin="round" fill="none" stroke="currentColor" stroke-width="2" stroke-linecap="round">
        <polyline points="8 6 2 12 8 18"></polyline>
        <polyline points="16 6 22 12 16 18"></polyline>
    </symbol>

    <symbol id="icon-skill-learning" viewBox="0 0 24 24" fill="none" stroke="currentColor" stroke-width="2" stroke-linecap="round">
        <path d="M12 20V10"></path><path d="M12 10 3 6l9-4 9 4-9 4Z"></path>
        <path d="M20 10v6c0 1.5-3.5 3-8 3s-8-1.5-8-3v-6"></path>
    </symbol>

    <symbol id="icon-skill-markup" viewBox="0 0 24 24" stroke-linejoin="round" fill="none" stroke="currentColor" stroke-width="2" stroke-linecap="round">
        <polyline points="4 4 5.5 20 12 22 18.5 20 20 4"></polyline>
        <path d="M8 8h8M8.4 12h7.2M8.7 16l3.3 1 3.3-1">
    </symbol>

    <symbol id="icon-skill-tools" viewBox="0 0 24 24" stroke-linejoin="round" fill="none" stroke="currentColor" stroke-width="2" stroke-linecap="round">
        <path d="M14.7 6.3a4 4 0 0 1-5.4 5.4L4 17v3h3l5.3-5.3a4 4 0 0 1 5.4-5.4l-2.6 2.6-2-2 2.6-2.6Z"></path>
    </symbol>

    <!-- === TECHNOLOGY === -->
    <symbol id="icon-next.js" width="64" height="64" viewBox="0 0 64 64">
        <circle cx="32" cy="32" r="32" fill="#111111"></circle>
        <g transform="translate(8,8)">
            <svg width="48" height="48" viewBox="0 0 24 24" fill="none" stroke="#fff" stroke-width="2" stroke-linecap="round" stroke-linejoin="round"><circle cx="12" cy="12" r="9"></circle><polygon points="10 8 16 12 10 16" fill="currentColor" stroke="none"></polygon></svg>
        </g>
    </symbol>

    <symbol id="icon-nodejs" viewBox="0 0 24 24" width="64" height="64">
        <circle cx="32" cy="32" r="32" fill="#339933"></circle>
        <g transform="translate(8,8)">
            <svg width="48" height="48" viewBox="0 0 24 24" fill="none" stroke="#fff" stroke-width="2" stroke-linecap="round" stroke-linejoin="round"><polygon points="12 2 20 7 20 17 12 22 4 17 4 7"></polygon></svg>
        </g>
    </symbol>

    <symbol id="icon-react" width="64" height="64" viewBox="0 0 64 64">
        <circle cx="32" cy="32" r="32" fill="#61DAFB"></circle>
        <g transform="translate(8,8)">
            <svg width="48" height="48" viewBox="0 0 24 24" fill="none" stroke="#0a3540" stroke-width="1.6" stroke-linecap="round" stroke-linejoin="round"><ellipse cx="12" cy="12" rx="10" ry="4"></ellipse><ellipse cx="12" cy="12" rx="10" ry="4" transform="rotate(60 12 12)"></ellipse><ellipse cx="12" cy="12" rx="10" ry="4" transform="rotate(120 12 12)"></ellipse><circle cx="12" cy="12" r="1.8" fill="currentColor" stroke="none"></circle></svg>
        </g>
    </symbol>

    <symbol id="icon-redux" width="64" height="64" viewBox="0 0 64 64">
        <circle cx="32" cy="32" r="32" fill="#764ABC"></circle>
        <g transform="translate(8,8)">
            <svg width="48" height="48" viewBox="0 0 24 24" fill="none" stroke="#fff" stroke-width="2" stroke-linecap="round" stroke-linejoin="round"><path d="M12 4a8 8 0 1 1-6.9 4"></path><polyline points="4 4 5 8 9 7"></polyline></svg>
        </g>
    </symbol>

    <symbol id="icon-styled" width="64" height="64" viewBox="0 0 64 64">
        <circle cx="32" cy="32" r="32" fill="#DB7093"></circle>
        <g transform="translate(8,8)">
            <svg width="48" height="48" viewBox="0 0 24 24" fill="none" stroke="#fff" stroke-width="2" stroke-linecap="round" stroke-linejoin="round"><path d="M3 12c3-6 6-6 9 0s6 6 9 0"></path></svg>
        </g>
    </symbol>

    <symbol id="icon-typescript"  width="64" height="64" viewBox="0 0 64 64">
        <circle cx="32" cy="32" r="32" fill="#3178C6"></circle>
        <g transform="translate(8,8)">
            <svg width="48" height="48" viewBox="0 0 24 24" fill="#fff"><text x="12" y="17" font-family="Manrope, sans-serif" font-size="13" font-weight="800" text-anchor="middle" fill="currentColor">TS</text></svg>
        </g>
    </symbol>

    <symbol id="icon-vite" width="64" height="64" viewBox="0 0 64 64">
        <circle cx="32" cy="32" r="32" fill="#646CFF"></circle>
        <g transform="translate(8,8)">
            <svg width="48" height="48" viewBox="0 0 24 24" fill="#fff"><polygon points="13 2 4 14 11 14 10 22 20 9 13 9 13 2"></polygon></svg>
        </g>
    </symbol>

    <symbol id="icon-codex" width="64" height="64" viewBox="0 0 64 64">
        <circle cx="32" cy="32" r="32" fill="#10A37F"></circle>
        <g transform="translate(8,8)">
            <svg width="48" height="48" viewBox="0 0 24 24" fill="none" stroke="#fff" stroke-width="2" stroke-linecap="round" stroke-linejoin="round"><rect x="3" y="4" width="18" height="16" rx="2"></rect><polyline points="7 9 10 12 7 15"></polyline><line x1="12" y1="15" x2="16" y2="15"></line></svg>
        </g>
    </symbol>

    <symbol id="icon-git" width="64" height="64" viewBox="0 0 64 64">
        <circle cx="32" cy="32" r="32" fill="#F05033"></circle>
        <g transform="translate(8,8)">
            <svg width="48" height="48" viewBox="0 0 24 24" fill="none" stroke="#fff" stroke-width="2" stroke-linecap="round" stroke-linejoin="round"><circle cx="6" cy="6" r="2"></circle><circle cx="6" cy="18" r="2"></circle><circle cx="18" cy="10" r="2"></circle><line x1="6" y1="8" x2="6" y2="16"></line><path d="M6 8c0 4 4 4 8 4 2 0 4-1 4-2"></path></svg>
        </g>
    </symbol>

    <symbol id="icon-css" width="64" height="64" viewBox="0 0 64 64">
        <circle cx="32" cy="32" r="32" fill="#1572B6"></circle>
        <g transform="translate(8,8)">
            <svg width="48" height="48" viewBox="0 0 24 24" fill="none" stroke="#fff" stroke-width="2" stroke-linecap="round" stroke-linejoin="round"><circle cx="8" cy="8" r="3"></circle><circle cx="16" cy="8" r="3"></circle><circle cx="12" cy="16" r="3"></circle></svg>
        </g>
    </symbol>

    <symbol id="icon-html" width="64" height="64" viewBox="0 0 64 64">
        <circle cx="32" cy="32" r="32" fill="#E34F26"></circle>
        <g transform="translate(8,8)">
            <svg width="48" height="48" viewBox="0 0 24 24" fill="none" stroke="#fff" stroke-width="2" stroke-linecap="round" stroke-linejoin="round"><path d="M8 4 3 12 8 20"></path><path d="M16 4 21 12 16 20"></path><line x1="13" y1="3" x2="11" y2="21"></line></svg>
        </g>
    </symbol>

    <symbol id="icon-javascript" width="64" height="64" viewBox="0 0 64 64">
        <circle cx="32" cy="32" r="32" fill="#F0DB4F"></circle>
        <g transform="translate(8,8)">
            <svg width="48" height="48" viewBox="0 0 24 24" fill="#2b2200"><text x="12" y="17" font-family="Manrope, sans-serif" font-size="13" font-weight="800" text-anchor="middle" fill="currentColor">JS</text></svg>
        </g>
    </symbol>

    <symbol id="icon-jest" width="64" height="64" viewBox="0 0 64 64">
        <circle cx="32" cy="32" r="32" fill="#C21325"></circle>
        <g transform="translate(8,8)">
            <svg width="48" height="48" viewBox="0 0 24 24" fill="none" stroke="#fff" stroke-width="2" stroke-linecap="round" stroke-linejoin="round"><circle cx="12" cy="12" r="9"></circle><polyline points="8 12 11 15 16 9"></polyline></svg>
        </g>
    </symbol>

    <!-- === SOCIAL === -->
    <symbol id="icon-kakaotalk" width="24" height="24" viewBox="0 0 24 24" fill="none" stroke="currentColor" stroke-width="2" stroke-linecap="round" stroke-linejoin="round">
        <path d="M12 3C6.5 3 2 6.6 2 11c0 2.7 1.8 5.1 4.5 6.6L5.5 21l3.9-2.2c.8.15 1.7.22 2.6.22 5.5 0 10-3.6 10-8s-4.5-8-10-8Z"></path>
    </symbol>

    <symbol id="icon-linkedin" width="24" height="24" viewBox="0 0 24 24" fill="currentColor">
        <path d="M6.94 5a2 2 0 1 1-4 0 2 2 0 0 1 4 0ZM3.2 8.75h3.5V21H3.2V8.75Zm6.34 0H13v1.68h.05c.47-.88 1.6-1.8 3.3-1.8 3.53 0 4.18 2.32 4.18 5.35V21h-3.5v-6.3c0-1.5-.03-3.44-2.1-3.44-2.1 0-2.42 1.64-2.42 3.33V21H9.54V8.75Z"></path>
    </symbol>

    <symbol id="icon-mail" width="24" height="24" viewBox="0 0 24 24" fill="none" stroke="currentColor" stroke-width="2" stroke-linecap="round" stroke-linejoin="round">
        <rect x="2" y="4" width="20" height="16" rx="2"></rect><path d="m22 6-10 7L2 6"></path>
    </symbol>

    <symbol id="icon-telegram" width="24" height="24" viewBox="0 0 24 24" fill="currentColor">
        <path d="M21.5 3.5 2.75 10.9c-1.2.48-1.2 1.15-.22 1.44l4.78 1.5 1.85 5.65c.23.63.4.88.85.88.34 0 .5-.16.7-.36l1.9-1.83 4.02 2.96c.74.4 1.27.2 1.46-.68l2.63-12.4c.28-1.11-.42-1.6-1.24-1.26Z"></path>
    </symbol>

    <symbol id="icon-whatsapp" width="24" height="24" viewBox="0 0 24 24" fill="none" stroke="currentColor" stroke-width="2" stroke-linecap="round" stroke-linejoin="round">
        <path d="M21 11.5a8.5 8.5 0 0 1-12.36 7.57L4 20l1.02-4.5A8.5 8.5 0 1 1 21 11.5Z"></path>
        <path d="M8.5 10.5c0 3 2.5 5.5 5.5 5.5"></path>
    </symbol>

    <symbol id="icon-codewars" width="24" height="24" viewBox="0 0 24 24" fill="none" stroke="currentColor" stroke-width="2" stroke-linecap="round" stroke-linejoin="round">
        <polyline points="8 6 2 12 8 18"></polyline><polyline points="16 6 22 12 16 18"></polyline><line x1="13" y1="4" x2="11" y2="20"></line>
    </symbol>

    <symbol id="icon-github" width="24" height="24" viewBox="0 0 24 24" fill="currentColor">
        <path d="M12 2a10 10 0 0 0-3.16 19.5c.5.1.68-.22.68-.48v-1.7c-2.78.6-3.37-1.34-3.37-1.34-.46-1.16-1.11-1.47-1.11-1.47-.9-.62.07-.6.07-.6 1 .07 1.53 1.03 1.53 1.03.9 1.52 2.34 1.08 2.91.83.09-.65.35-1.08.63-1.33-2.22-.25-4.56-1.11-4.56-4.95 0-1.1.39-1.99 1.03-2.69-.1-.25-.45-1.27.1-2.65 0 0 .84-.27 2.75 1.02a9.6 9.6 0 0 1 5 0c1.91-1.29 2.75-1.02 2.75-1.02.55 1.38.2 2.4.1 2.65.64.7 1.03 1.59 1.03 2.69 0 3.85-2.34 4.7-4.57 4.94.36.31.68.92.68 1.85v2.75c0 .26.18.58.69.48A10 10 0 0 0 12 2Z"></path>
    </symbol>git rebase -i HEAD~5
</svg>