<svg xmlns="http://www.w3.org/2000/svg" width="64" height="64" viewBox="0 0 64 64"><circle cx="32" cy="32" r="32" fill="#181717"></circle><g transform="translate(8,8)"><svg width="48" height="48" viewBox="0 0 24 24" fill="#fff"><path d="M12 2a10 10 0 0 0-3.16 19.5c.5.1.68-.22.68-.48v-1.7c-2.78.6-3.37-1.34-3.37-1.34-.46-1.16-1.11-1.47-1.11-1.47-.9-.62.07-.6.07-.6 1 .07 1.53 1.03 1.53 1.03.9 1.52 2.34 1.08 2.91.83.09-.65.35-1.08.63-1.33-2.22-.25-4.56-1.11-4.56-4.95 0-1.1.39-1.99 1.03-2.69-.1-.25-.45-1.27.1-2.65 0 0 .84-.27 2.75 1.02a9.6 9.6 0 0 1 5 0c1.91-1.29 2.75-1.02 2.75-1.02.55 1.38.2 2.4.1 2.65.64.7 1.03 1.59 1.03 2.69 0 3.85-2.34 4.7-4.57 4.94.36.31.68.92.68 1.85v2.75c0 .26.18.58.69.48A10 10 0 0 0 12 2Z"></path></svg></g></svg>